# xmcd
#
# Track frame offsets:
#	150
#	29280
#	52140
#	73597
#	98032
#	122657
#	145837
#	168442
#	186865
#
# Disc length: 2698 seconds
#
# Revision: 9
# Processed by: cddbd v1.5.2PL0 Copyright (c) Steve Scherf et al.
# Submitted via: EasyCDDAExtractor 15.3.0.1
#
DISCID=7d0a8809
DTITLE=Marc Anthony - Contra La Corriente
DYEAR=1997
DGENRE=Latin
TTITLE0=Y Hubo Alguien
TTITLE1=Contra La Corriente
TTITLE2=Si Te Vas
TTITLE3=Me Voy A Regalar
TTITLE4=No Me Conoces
TTITLE5=No Sabes Como Duele
TTITLE6=La Luna Sobre Nuestro Amor
TTITLE7=Suceden
TTITLE8=Un Mal Sueño
EXTD=
EXTT0=
EXTT1=
EXTT2=
EXTT3=
EXTT4=
EXTT5=
EXTT6=
EXTT7=
EXTT8=
PLAYORDER=
